<?xml version="1.0" encoding="UTF-8"?>
<svg id="Layer_1" xmlns="http://www.w3.org/2000/svg" version="1.1" viewBox="0 0 595.28 841.89">
  <!-- Generator: Adobe Illustrator 30.0.0, SVG Export Plug-In . SVG Version: 2.1.1 Build 123)  -->
  <defs>
    <style>
      .st0 {
        fill: none;
        stroke: #231f20;
        stroke-miterlimit: 10;
      }
    </style>
  </defs>
  <path class="st0" d="M300.75,468.96c-12.21,4.27-24.03,10.46-34.15,16.24-14.54,8.5-29.54,13.41-50.47,21.8,6.97-10.42,17.52-21.9,27.47-31.4,8.36-7.73,28.66-28.22,30.4-33.06-.68-2.03-77.68-39.22-76.36-42.12.75-1.65,52.2,7.14,54.37,8.16,1.63.77,28.1,6.52,29.35,5.26.19-.19-3.03-8.68-3.64-9.17-1.96-1.6-15.92-49.27-14.62-49.94,1.58-.81,28.03,22.87,28.72,24.54.41,1.01,13.76,13.32,14.27,13.36,1.2.1,30.49-43.33,31.43-45.76.83-2.15,22.13-31.54,23.29-30.69,1.05.77-5.06,37.95-5.83,39.97-1.04,2.72-11.86,62.38-10.99,63.18,1.51,1.39,54.19-4.57,54.32-2.16.04.79-10.4,8.81-11.18,9.14-1.6.68-38.53,20.61-38.6,21.65-.05.88,20.65,28.58,21.81,29.51.86.69,10.75,14.67,10,15.31-.78.66-21.77-3.51-22.66-4.07-1.11-.69-28.01-8.15-28.77-7.6-.69.5-11.1,23.7-11.28,24.9-.18,1.18-9.51,20.86-10.52,20.66-1.15-.23-4.58-31.93-4.56-33.16.02-.95-1.58-23.93-1.8-24.54Z"/>
</svg>