<?xml version="1.0" encoding="UTF-8"?>
<svg id="Layer_1" xmlns="http://www.w3.org/2000/svg" version="1.1" viewBox="0 0 595.28 841.89">
  <!-- Generator: Adobe Illustrator 30.0.0, SVG Export Plug-In . SVG Version: 2.1.1 Build 123)  -->
  <defs>
    <style>
      .st0 {
        fill: none;
        stroke: #231f20;
        stroke-miterlimit: 10;
      }
    </style>
  </defs>
  <path class="st0" d="M300.47,469.25c-11.77,3.22-24.4,10.04-34.48,16.3-14.6,9.33-29.89,13.38-49.93,20.83,5.89-10.6,17.03-22.67,27.31-31.72,8.78-7.38,29.03-26.47,30.28-32.15-1.02-3.04-77.67-37.57-75.69-41.92,1.13-2.48,50.83,6.12,54.08,7.65,2.45,1.15,27.87,7.39,29.74,5.5.28-.28-3.35-9.1-4.26-9.85-2.94-2.4-15.94-47.95-13.98-48.95,2.37-1.21,28.06,21.63,29.08,24.14.62,1.52,13.14,13.2,13.91,13.26,1.8.15,29.4-41.99,30.8-45.63,1.25-3.22,22.07-31.64,23.81-30.37,1.58,1.16-4.15,37.16-5.31,40.19-1.56,4.09-12.15,61.19-10.85,62.39,2.26,2.09,53.45-5.22,53.65-1.6.07,1.18-9.61,9.53-10.76,10.02-2.4,1.02-38.49,19.05-38.59,20.61-.08,1.33,19.97,27.86,21.71,29.26,1.3,1.04,10.81,14.77,9.69,15.72-1.17.99-21.36-2.49-22.69-3.32-1.66-1.03-27.52-8.65-28.66-7.82-1.03.75-10.63,22.56-10.91,24.34-.27,1.77-9.52,21.02-11.03,20.71-1.72-.35-5.32-30.96-5.29-32.81.03-1.42-1.28-23.85-1.61-24.78Z"/>
</svg>