<?xml version="1.0" encoding="UTF-8"?>
<svg id="Layer_1" xmlns="http://www.w3.org/2000/svg" version="1.1" viewBox="0 0 595.28 841.89">
  <!-- Generator: Adobe Illustrator 30.0.0, SVG Export Plug-In . SVG Version: 2.1.1 Build 123)  -->
  <defs>
    <style>
      .st0 {
        fill: none;
        stroke: #231f20;
        stroke-miterlimit: 10;
      }
    </style>
  </defs>
  <path class="st0" d="M301.3,468.38c-13.11,6.39-23.29,11.31-33.48,16.14-14.41,6.83-28.83,13.46-51.55,23.75,9.14-10.05,18.48-20.36,27.8-30.78,7.53-8.42,27.92-31.71,30.63-34.86l-77.7-42.51,54.94,9.16,28.56,4.76-2.39-7.82-15.88-51.92,27.99,25.34,14.99,13.57,32.69-46.02,22.26-31.33-6.89,39.52-11.28,64.74,55.66-3.28-12,7.37-38.62,23.73,22.03,30.02,10.63,14.48-22.59-5.57-28.99-7.14-12.04,26-9.51,20.54-3.08-33.86-2.19-24.07Z"/>
</svg>