<?xml version="1.0" encoding="UTF-8"?>
<svg id="Layer_1" xmlns="http://www.w3.org/2000/svg" version="1.1" viewBox="0 0 595.28 841.89">
  <!-- Generator: Adobe Illustrator 30.0.0, SVG Export Plug-In . SVG Version: 2.1.1 Build 123)  -->
  <defs>
    <style>
      .st0 {
        fill: none;
        stroke: #231f20;
        stroke-miterlimit: 10;
      }
    </style>
  </defs>
  <path class="st0" d="M299.36,470.4c-9.98-1-25.88,8.35-35.82,16.5-14.86,12.67-31.29,13.27-47.77,16.93,1.55-11.33,15.11-25.74,26.66-32.98,10.44-5.99,30.5-19.49,29.81-28.55-2.39-7.09-77.62-30.99-73-41.14,2.63-5.79,45.34,2.07,52.93,5.63,5.71,2.69,26.94,10.9,31.3,6.49.65-.66-4.62-10.81-6.75-12.55-6.87-5.61-16.02-42.66-11.46-44.99,5.53-2.82,28.14,16.69,30.53,22.55,1.44,3.54,10.67,12.69,12.45,12.84,4.2.35,25-36.63,28.29-45.12,2.91-7.51,21.82-32.07,25.88-29.08,3.68,2.71-.5,34.02-3.2,41.09-3.64,9.54-13.3,56.46-10.27,59.26,5.28,4.87,50.5-7.81,50.96.64.15,2.75-6.42,12.4-9.12,13.55-5.6,2.39-38.33,12.8-38.55,16.44-.19,3.09,17.22,24.99,21.27,28.24,3.03,2.42,11.06,15.16,8.45,17.37-2.73,2.3-19.71,1.62-22.82-.32-3.88-2.41-25.57-10.65-28.23-8.73-2.41,1.74-8.77,17.97-9.4,22.14-.63,4.14-9.53,21.66-13.06,20.94-4.02-.82-8.31-27.09-8.23-31.42.06-3.32-.05-23.56-.83-25.73Z"/>
</svg>