<?xml version="1.0" encoding="UTF-8"?>
<svg id="Layer_1" xmlns="http://www.w3.org/2000/svg" version="1.1" viewBox="0 0 248.35 256.77">
  <!-- Generator: Adobe Illustrator 30.0.0, SVG Export Plug-In . SVG Version: 2.1.1 Build 123)  -->
  <defs>
    <style>
      .st0 {
        fill: none;
        stroke: #231f20;
        stroke-miterlimit: 10;
      }
    </style>
  </defs>
  <path class="st0" d="M124.94,179.65c-9.08-3.11-26.61,7.5-36.49,16.61-14.98,14.33-31.99,13.21-46.69,14.98-.62-11.69,14.15-27.28,26.34-33.61,11.27-5.29,31.24-15.99,29.57-26.74-3.07-9.11-77.6-27.7-71.66-40.75,3.39-7.44,42.6.04,52.35,4.63,7.35,3.46,26.47,12.65,32.09,6.98.83-.84-5.26-11.66-8-13.9-8.83-7.22-16.07-40.02-10.2-43.02,7.11-3.63,28.19,14.22,31.26,21.75,1.85,4.55,9.43,12.44,11.73,12.63,5.4.45,22.8-33.95,27.03-44.87,3.74-9.66,21.7-32.28,26.92-28.44,4.74,3.48,1.32,32.44-2.15,41.53-4.68,12.26-13.88,54.1-9.98,57.69,6.79,6.26,49.02-9.1,49.62,1.76.2,3.54-4.82,13.83-8.3,15.32-7.2,3.07-38.25,9.68-38.54,14.36-.25,3.98,15.84,23.55,21.06,27.73,3.89,3.12,11.18,15.36,7.82,18.19-3.5,2.96-18.88,3.67-22.89,1.18-4.99-3.1-24.6-11.66-28.02-9.19-3.1,2.24-7.83,15.67-8.65,21.04-.81,5.32-9.53,21.98-14.07,21.05-5.17-1.05-9.81-25.16-9.71-30.72.08-4.27.56-23.42-.44-26.2Z"/>
</svg>