<?xml version="1.0" encoding="UTF-8"?>
<svg id="Layer_1" xmlns="http://www.w3.org/2000/svg" version="1.1" viewBox="0 0 595.28 841.89">
  <!-- Generator: Adobe Illustrator 30.0.0, SVG Export Plug-In . SVG Version: 2.1.1 Build 123)  -->
  <defs>
    <style>
      .st0 {
        fill: none;
        stroke: #231f20;
        stroke-miterlimit: 10;
      }
    </style>
  </defs>
  <path class="st0" d="M309.79,472.86c-6.15-10.03-30.66,4.72-40.3,16.94-15.4,19.8-34.29,13.03-43.16,8.59-7.74-12.89,10.99-32.33,25.27-35.67,13.99-3.01,35.75-4.55,30.89-20.83-5.31-15.75-79.61-16.91-69.35-39.46,5.86-12.86,33.6-6.61,50.46,1.32,12.7,5.97,24.3,20.01,34.01,10.2,1.44-1.46-4.18-15.2-9.12-18.77-16.73-11.98-18.53-32.51-8.38-37.69,12.28-6.27,28.55,7.13,32.48,20.06,2.41,8.08,5.84,13.47,9.81,13.8,9.33.79,16.29-27.94,23.6-46.82,6.46-16.69,21.29-32.98,30.31-26.34,8.19,6.02,7.3,27.29,1.31,43-8.08,21.19-15.77,46.35-9.03,52.56,11.74,10.82,44.18-13.34,45.22,5.43.34,6.11-.76,17.61-6.77,20.17-12.44,5.31-39.6,1.53-40.1,9.63-.42,6.88,13.65,18.84,22.67,26.07,6.72,5.39,12.05,14.83,6.25,19.74-6.06,5.12-17.34,8.07-24.27,3.77-8.62-5.35-20.71-15.88-26.61-11.6-5.35,3.87-5.23,11.4-6.65,20.67-1.4,9.19-8.62,23.03-16.47,21.43-8.93-1.82-14.7-18.81-14.53-28.44.13-7.37,4.19-22.94,2.46-27.75Z"/>
</svg>