<?xml version="1.0" encoding="UTF-8"?>
<svg id="Layer_1" xmlns="http://www.w3.org/2000/svg" version="1.1" viewBox="0 0 595.28 841.89">
  <!-- Generator: Adobe Illustrator 30.0.0, SVG Export Plug-In . SVG Version: 2.1.1 Build 123)  -->
  <defs>
    <style>
      .st0 {
        fill: none;
        stroke: #231f20;
        stroke-miterlimit: 10;
      }
    </style>
  </defs>
  <path class="st0" d="M299.63,470.11c-10.42.06-25.51,8.77-35.49,16.45-14.79,11.83-30.94,13.3-48.31,17.9,2.63-11.15,15.59-24.98,26.82-32.66,10.02-6.33,30.14-21.23,29.93-29.45-2.05-6.08-77.64-32.64-73.68-41.33,2.26-4.96,46.71,3.08,53.21,6.14,4.9,2.3,27.17,10.02,30.91,6.24.56-.56-4.31-10.38-6.13-11.87-5.89-4.81-16-43.98-12.09-45.98,4.74-2.42,28.12,17.93,30.17,22.95,1.24,3.03,11.28,12.82,12.82,12.95,3.6.3,26.1-37.97,28.92-45.25,2.49-6.44,21.88-31.96,25.36-29.4,3.16,2.32-1.42,34.8-3.73,40.86-3.12,8.17-13.01,57.65-10.41,60.04,4.53,4.17,51.23-7.16,51.63.08.13,2.36-7.21,11.68-9.53,12.67-4.8,2.05-38.37,14.36-38.56,17.48-.16,2.65,17.9,25.71,21.38,28.49,2.59,2.08,11,15.06,8.76,16.96-2.34,1.97-20.12.59-22.79-1.07-3.32-2.06-26.06-10.15-28.34-8.5-2.06,1.49-9.23,19.11-9.78,22.69-.54,3.55-9.52,21.5-12.55,20.88-3.44-.7-7.57-28.06-7.5-31.77.05-2.84-.36-23.63-1.02-25.49Z"/>
</svg>