<?xml version="1.0" encoding="UTF-8"?>
<svg id="Layer_1" xmlns="http://www.w3.org/2000/svg" version="1.1" viewBox="0 0 248.35 256.77">
  <!-- Generator: Adobe Illustrator 30.0.0, SVG Export Plug-In . SVG Version: 2.1.1 Build 123)  -->
  <defs>
    <style>
      .st0 {
        fill: none;
        stroke: #231f20;
        stroke-miterlimit: 10;
      }
    </style>
  </defs>
  <path class="st0" d="M127.17,177.35c-12.66,5.33-23.66,10.89-33.81,16.19-14.48,7.66-29.18,13.44-51.01,22.78,8.06-10.23,18-21.13,27.63-31.09,7.95-8.07,28.29-29.96,30.51-33.96-.34-1.01-77.69-40.86-77.03-42.31.38-.83,53.57,8.15,54.65,8.66.82.38,28.33,5.64,28.96,5.01.09-.09-2.71-8.25-3.02-8.5-.98-.8-15.9-50.59-15.25-50.93.79-.4,28.01,24.1,28.35,24.94.21.51,14.38,13.45,14.63,13.47.6.05,31.59-44.67,32.06-45.89.42-1.07,22.19-31.43,22.77-31.01.53.39-5.98,38.74-6.36,39.75-.52,1.36-11.57,63.56-11.14,63.96.75.7,54.93-3.92,54.99-2.72.02.39-11.2,8.09-11.59,8.26-.8.34-38.58,22.17-38.61,22.69-.03.44,21.34,29.3,21.92,29.76.43.35,10.69,14.58,10.32,14.89-.39.33-22.18-4.54-22.63-4.82-.55-.34-28.5-7.64-28.88-7.37-.34.25-11.57,24.85-11.66,25.45-.09.59-9.51,20.7-10.02,20.6-.57-.12-3.83-32.89-3.82-33.51,0-.47-1.89-24-2-24.31Z"/>
</svg>