<?xml version="1.0" encoding="UTF-8"?>
<svg id="Layer_1" xmlns="http://www.w3.org/2000/svg" version="1.1" viewBox="0 0 248.35 256.77">
  <!-- Generator: Adobe Illustrator 30.0.0, SVG Export Plug-In . SVG Version: 2.1.1 Build 123)  -->
  <defs>
    <style>
      .st0 {
        fill: none;
        stroke: #231f20;
        stroke-miterlimit: 10;
      }
    </style>
  </defs>
  <path class="st0" d="M125.22,179.37c-9.53-2.05-26.24,7.92-36.15,16.55-14.92,13.5-31.64,13.24-47.23,15.95.46-11.51,14.63-26.51,26.5-33.29,10.85-5.64,30.87-17.74,29.69-27.64-2.73-8.1-77.61-29.35-72.33-40.94,3.01-6.61,43.97,1.05,52.64,5.13,6.53,3.07,26.7,11.78,31.69,6.73.74-.75-4.94-11.23-7.38-13.22-7.85-6.41-16.05-41.34-10.83-44,6.32-3.23,28.17,15.46,30.89,22.15,1.65,4.05,10.05,12.56,12.09,12.74,4.8.4,23.9-35.29,27.66-45,3.32-8.59,21.76-32.18,26.4-28.76,4.21,3.1.41,33.23-2.67,41.31-4.16,10.9-13.59,55.28-10.13,58.48,6.04,5.56,49.76-8.45,50.29,1.2.17,3.14-5.62,13.12-8.71,14.43-6.4,2.73-38.29,11.24-38.55,15.4-.22,3.54,16.53,24.27,21.16,27.99,3.46,2.77,11.12,15.26,8.14,17.78-3.12,2.63-19.29,2.64-22.86.43-4.43-2.75-25.09-11.16-28.12-8.96-2.75,1.99-8.3,16.82-9.03,21.59-.72,4.73-9.53,21.82-13.57,21-4.59-.94-9.06-26.12-8.97-31.07.07-3.79.25-23.49-.63-25.96Z"/>
</svg>