<?xml version="1.0" encoding="UTF-8"?>
<svg id="Layer_1" xmlns="http://www.w3.org/2000/svg" version="1.1" viewBox="0 0 595.28 841.89">
  <!-- Generator: Adobe Illustrator 30.0.0, SVG Export Plug-In . SVG Version: 2.1.1 Build 123)  -->
  <defs>
    <style>
      .st0 {
        fill: none;
        stroke: #231f20;
        stroke-miterlimit: 10;
      }
    </style>
  </defs>
  <path class="st0" d="M310.39,473.08c-5.81-10.85-31.76,4.39-41.38,16.98-15.44,20.45-34.56,13-42.74,7.83-8.58-13.03,10.61-32.92,25.15-35.91,14.31-2.74,37.08-3.19,31.84-20.12-5.57-16.54-80.65-15.63-69.87-39.31,6.15-13.5,32.54-7.4,50.24.93,13.33,6.27,23.8,21.49,33.99,11.2,1.51-1.53-2.84-15.9-8.12-19.51-18.22-12.35-19.7-32.07-9.05-37.51,12.9-6.59,28.68,6.67,32.18,20.22,2.17,8.58,5.59,14.3,9.76,14.65,9.8.82,15.78-28.29,23.45-48.11,6.78-17.53,21.24-33.06,30.71-26.09,8.59,6.32,8.01,26.68,1.72,43.17-8.49,22.25-16,45.43-8.92,51.95,12.32,11.36,43.6-13.85,44.7,5.86.36,6.42-.72,17.7-7.03,20.39-13.07,5.57-40.38,1.36-40.91,9.86-.45,7.22,14.28,18.28,23.74,25.87,7.06,5.66,12.33,14.33,6.24,19.48-6.36,5.37-17.6,7.71-24.88,3.19-9.05-5.62-19.98-16.73-26.18-12.25-5.62,4.06-5.1,12.13-6.59,21.87-1.47,9.65-8.15,23.15-16.4,21.47-9.37-1.91-15.28-18.06-15.1-28.17.14-7.74,5.24-22.88,3.43-27.93Z"/>
</svg>