<?xml version="1.0" encoding="UTF-8"?>
<svg id="Layer_1" xmlns="http://www.w3.org/2000/svg" version="1.1" viewBox="0 0 595.28 841.89">
  <!-- Generator: Adobe Illustrator 30.0.0, SVG Export Plug-In . SVG Version: 2.1.1 Build 123)  -->
  <defs>
    <style>
      .st0 {
        fill: none;
        stroke: #231f20;
        stroke-miterlimit: 10;
      }
    </style>
  </defs>
  <path class="st0" d="M298.01,472.63c-6.5-9.21-29.56,5.05-39.23,16.9-15.35,19.15-34.02,13.05-43.57,9.35-6.89-12.75,11.36-31.73,25.4-35.42,13.66-3.28,34.42-5.91,29.94-21.53-5.04-14.97-78.58-18.19-68.83-39.61,5.56-12.22,34.67-5.82,50.69,1.71,12.06,5.67,24.8,18.52,34.02,9.21,1.37-1.38-5.52-14.5-10.11-18.02-15.23-11.6-17.35-32.96-7.71-37.88,11.67-5.96,28.43,7.59,32.77,19.91,2.65,7.58,6.09,12.64,9.86,12.96,8.86.75,16.8-27.59,23.74-45.53,6.14-15.86,21.34-32.89,29.91-26.59,7.78,5.72,6.59,27.9.9,42.82-7.68,20.13-15.55,47.27-9.14,53.17,11.15,10.28,44.75-12.84,45.74,4.99.32,5.81-.8,17.52-6.51,19.95-11.82,5.04-38.82,1.7-39.3,9.39-.4,6.53,13.03,19.4,21.59,26.26,6.39,5.12,11.77,15.34,6.26,20-5.75,4.86-17.08,8.44-23.66,4.35-8.19-5.08-21.43-15.02-27.04-10.96-5.08,3.68-5.36,10.67-6.71,19.48-1.33,8.73-9.08,22.91-16.54,21.38-8.48-1.73-14.12-19.57-13.96-28.71.12-7,3.14-23,1.5-27.57Z"/>
</svg>