<?xml version="1.0" encoding="UTF-8"?>
<svg id="Layer_1" xmlns="http://www.w3.org/2000/svg" version="1.1" viewBox="0 0 595.28 841.89">
  <!-- Generator: Adobe Illustrator 30.0.0, SVG Export Plug-In . SVG Version: 2.1.1 Build 123)  -->
  <defs>
    <style>
      .st0 {
        fill: none;
        stroke: #231f20;
        stroke-miterlimit: 10;
      }
    </style>
  </defs>
  <path class="st0" d="M300.19,469.53c-11.32,2.17-24.77,9.62-34.82,16.35-14.67,10.17-30.24,13.35-49.39,19.85,4.8-10.78,16.55-23.44,27.15-32.03,9.19-7.03,29.4-24.72,30.16-31.25-1.36-4.05-77.66-35.93-75.02-41.73,1.51-3.31,49.45,5.11,53.79,7.15,3.27,1.54,27.63,8.27,30.13,5.75.37-.37-3.67-9.53-4.88-10.52-3.92-3.21-15.96-46.63-13.35-47.96,3.16-1.61,28.08,20.4,29.44,23.74.82,2.02,12.52,13.07,13.54,13.16,2.4.2,28.3-40.65,30.17-45.51,1.66-4.29,22.01-31.75,24.33-30.05,2.1,1.55-3.24,36.38-4.78,40.42-2.08,5.45-12.44,60.01-10.7,61.61,3.02,2.78,52.71-5.87,52.98-1.04.09,1.57-8.81,10.24-10.35,10.9-3.2,1.36-38.45,17.48-38.58,19.57-.11,1.77,19.28,27.15,21.6,29,1.73,1.39,10.87,14.87,9.38,16.13-1.56,1.32-20.94-1.46-22.73-2.57-2.22-1.38-27.04-9.15-28.55-8.05-1.38,1-10.17,21.41-10.53,23.79-.36,2.36-9.52,21.18-11.54,20.77-2.3-.47-6.07-29.99-6.03-32.47.03-1.9-.97-23.78-1.41-25.02Z"/>
</svg>