<?xml version="1.0" encoding="UTF-8"?>
<svg id="Layer_1" xmlns="http://www.w3.org/2000/svg" version="1.1" viewBox="0 0 248.35 256.77">
  <!-- Generator: Adobe Illustrator 30.0.0, SVG Export Plug-In . SVG Version: 2.1.1 Build 123)  -->
  <defs>
    <style>
      .st0 {
        fill: none;
        stroke: #231f20;
        stroke-miterlimit: 10;
      }
    </style>
  </defs>
  <path class="st0" d="M124.67,179.94c-8.64-4.16-26.98,7.08-36.82,16.66-15.04,15.17-32.34,13.18-46.15,14-1.71-11.88,13.66-28.05,26.17-33.92,11.68-4.94,31.61-14.25,29.46-25.84-3.41-10.13-77.59-26.06-70.99-40.55,3.76-8.27,41.22-.98,52.06,4.12,8.16,3.84,26.24,13.53,32.48,7.23.93-.94-5.58-12.09-8.62-14.57-9.81-8.02-16.09-38.7-9.56-42.03,7.9-4.03,28.21,12.99,31.62,21.35,2.06,5.06,8.81,12.31,11.36,12.53,6,.5,21.7-32.6,26.4-44.74,4.15-10.73,21.63-32.39,27.43-28.12,5.26,3.87,2.23,31.66-1.62,41.76-5.2,13.62-14.17,52.92-9.84,56.91,7.55,6.95,48.28-9.75,48.95,2.32.22,3.93-4.03,14.55-7.89,16.2-8,3.41-38.21,8.12-38.53,13.32-.27,4.42,15.15,22.83,20.95,27.48,4.32,3.46,11.25,15.45,7.51,18.61-3.89,3.29-18.47,4.69-22.92,1.93-5.54-3.44-24.11-12.16-27.91-9.41-3.44,2.49-7.36,14.53-8.27,20.49-.9,5.91-9.53,22.14-14.58,21.11-5.74-1.17-10.55-24.19-10.44-30.38.08-4.74.86-23.34-.24-26.44Z"/>
</svg>