<?xml version="1.0" encoding="UTF-8"?>
<svg id="Layer_1" xmlns="http://www.w3.org/2000/svg" version="1.1" viewBox="0 0 248.35 256.77">
  <!-- Generator: Adobe Illustrator 30.0.0, SVG Export Plug-In . SVG Version: 2.1.1 Build 123)  -->
  <defs>
    <style>
      .st0 {
        fill: none;
        stroke: #231f20;
        stroke-miterlimit: 10;
      }
    </style>
  </defs>
  <path class="st0" d="M124.39,180.23c-8.19-5.22-27.35,6.65-37.16,16.71-15.11,16-32.69,13.15-45.61,13.03-2.79-12.06,13.18-28.82,26.01-34.24,12.1-4.6,31.98-12.5,29.34-24.94-3.75-11.14-77.58-24.41-70.32-40.35,4.14-9.09,39.85-1.99,51.77,3.62,8.98,4.22,26,14.41,32.87,7.47,1.02-1.03-5.9-12.51-9.24-15.25-10.79-8.82-16.11-37.37-8.93-41.04,8.69-4.44,28.23,11.75,31.98,20.95,2.27,5.56,8.19,12.19,11,12.42,6.6.56,20.6-31.26,25.77-44.61,4.57-11.8,21.57-32.49,27.95-27.8,5.79,4.26,3.14,30.87-1.09,41.98-5.72,14.99-14.46,51.73-9.69,56.13,8.3,7.65,47.54-10.4,48.28,2.88.24,4.32-3.23,15.27-7.48,17.08-8.8,3.75-38.17,6.55-38.52,12.28-.3,4.86,14.46,22.12,20.84,27.22,4.75,3.81,11.31,15.55,7.2,19.02-4.28,3.62-18.06,5.72-22.96,2.68-6.1-3.78-23.62-12.66-27.8-9.64-3.78,2.74-6.9,13.38-7.9,19.93-.99,6.5-9.54,22.3-15.09,21.17-6.31-1.29-11.3-23.22-11.18-30.03.09-5.21,1.17-23.27-.05-26.67Z"/>
</svg>