<?xml version="1.0" encoding="UTF-8"?>
<svg id="Layer_1" xmlns="http://www.w3.org/2000/svg" version="1.1" viewBox="0 0 248.35 256.77">
  <!-- Generator: Adobe Illustrator 30.0.0, SVG Export Plug-In . SVG Version: 2.1.1 Build 123)  -->
  <defs>
    <style>
      .st0 {
        fill: none;
        stroke: #231f20;
        stroke-miterlimit: 10;
      }
    </style>
  </defs>
  <path class="st0" d="M127.13,182.43c-4.76-13.31-35.06,3.41-44.59,17.1-15.59,22.39-35.38,12.94-41.48,5.55-11.11-13.46,9.49-34.72,24.77-36.65,15.28-1.93,41.07.88,34.7-18.02-6.37-18.9-83.76-11.8-71.44-38.85,7.03-15.43,29.34-9.77,49.57-.25,15.24,7.17,22.29,25.95,33.94,14.18,1.73-1.75,1.18-18.01-5.13-21.76-22.71-13.49-23.23-30.72-11.06-36.94,14.74-7.53,29.06,5.3,31.28,20.68,1.46,10.09,4.84,16.79,9.61,17.19,11.19.94,14.26-29.34,23.03-52,7.75-20.03,21.09-33.31,31.92-25.35,9.82,7.22,10.14,24.84,2.94,43.69-9.7,25.43-16.67,42.67-8.58,50.12,14.08,12.98,41.88-15.36,43.13,7.17.41,7.33-.6,17.99-7.81,21.06-14.93,6.37-42.73.85-43.33,10.56-.51,8.25,16.15,16.61,26.97,25.28,8.07,6.47,13.17,12.81,6.21,18.7-7.27,6.14-18.38,6.62-26.69,1.46-10.34-6.42-17.8-19.3-24.88-14.17-6.42,4.65-4.71,14.33-6.41,25.46-1.68,11.03-6.77,23.53-16.19,21.6-10.71-2.19-17.03-15.81-16.82-27.36.16-8.85,8.39-22.71,6.32-28.48Z"/>
</svg>