<?xml version="1.0" encoding="UTF-8"?>
<svg id="Layer_1" xmlns="http://www.w3.org/2000/svg" version="1.1" viewBox="0 0 248.35 256.77">
  <!-- Generator: Adobe Illustrator 30.0.0, SVG Export Plug-In . SVG Version: 2.1.1 Build 123)  -->
  <defs>
    <style>
      .st0 {
        fill: none;
        stroke: #231f20;
        stroke-miterlimit: 10;
      }
    </style>
  </defs>
  <path class="st0" d="M126.06,178.5c-10.87,1.11-25.14,9.19-35.15,16.4-14.73,11-30.59,13.32-48.85,18.88,3.72-10.96,16.07-24.21,26.98-32.35,9.61-6.68,29.77-22.98,30.04-30.35-1.71-5.06-77.65-34.28-74.35-41.53,1.88-4.13,48.08,4.09,53.5,6.64,4.08,1.92,27.4,9.15,30.52,6,.46-.47-3.99-9.96-5.51-11.2-4.9-4.01-15.98-45.31-12.72-46.97,3.95-2.02,28.1,19.16,29.8,23.34,1.03,2.53,11.9,12.94,13.18,13.05,3,.25,27.2-39.31,29.54-45.38,2.08-5.37,21.95-31.86,24.85-29.72,2.63,1.93-2.33,35.59-4.25,40.64-2.6,6.81-12.73,58.83-10.56,60.83,3.77,3.48,51.97-6.51,52.31-.48.11,1.96-8.01,10.96-9.94,11.79-4,1.71-38.41,15.92-38.57,18.53-.14,2.21,18.59,26.43,21.49,28.75,2.16,1.73,10.94,14.97,9.07,16.54-1.95,1.64-20.53-.44-22.76-1.82-2.77-1.72-26.55-9.65-28.45-8.28-1.72,1.24-9.7,20.26-10.16,23.24-.45,2.95-9.52,21.34-12.04,20.83-2.87-.59-6.82-29.02-6.76-32.12.04-2.37-.66-23.71-1.22-25.25Z"/>
</svg>