<?xml version="1.0" encoding="UTF-8"?>
<svg id="Layer_1" xmlns="http://www.w3.org/2000/svg" version="1.1" viewBox="0 0 248.35 256.77">
  <!-- Generator: Adobe Illustrator 30.0.0, SVG Export Plug-In . SVG Version: 2.1.1 Build 123)  -->
  <defs>
    <style>
      .st0 {
        fill: none;
        stroke: #231f20;
        stroke-miterlimit: 10;
      }
    </style>
  </defs>
  <path class="st0" d="M124.11,180.52c-7.74-6.27-27.72,6.23-37.49,16.76-15.17,16.84-33.04,13.13-45.07,12.05-3.88-12.24,12.7-29.59,25.85-34.55,12.51-4.25,32.35-10.76,29.22-24.03-4.09-12.15-77.57-22.76-69.65-40.16,4.52-9.92,38.48-3.01,51.49,3.11,9.79,4.61,25.77,15.28,33.26,7.72,1.11-1.12-6.22-12.94-9.87-15.92-11.77-9.62-16.13-36.05-8.3-40.05,9.48-4.84,28.26,10.52,32.35,20.55,2.47,6.07,7.57,12.06,10.64,12.32,7.2.61,19.5-29.92,25.14-44.49,4.98-12.88,21.51-32.6,28.47-27.48,6.31,4.64,4.06,30.08-.57,42.2-6.24,16.35-14.75,50.55-9.55,55.34,9.05,8.35,46.8-11.04,47.61,3.44.26,4.72-2.43,15.99-7.07,17.96-9.6,4.09-38.12,4.99-38.51,11.24-.33,5.3,13.78,21.4,20.73,26.97,5.19,4.16,11.37,15.65,6.89,19.43-4.67,3.95-17.64,6.75-22.99,3.43-6.65-4.13-23.14-13.16-27.69-9.87-4.13,2.99-6.43,12.23-7.52,19.38-1.08,7.09-9.54,22.46-15.59,21.22-6.89-1.41-12.05-22.25-11.91-29.68.1-5.69,1.47-23.2.15-26.91Z"/>
</svg>