<?xml version="1.0" encoding="UTF-8"?>
<svg id="Layer_1" xmlns="http://www.w3.org/2000/svg" version="1.1" viewBox="0 0 595.28 841.89">
  <!-- Generator: Adobe Illustrator 30.0.0, SVG Export Plug-In . SVG Version: 2.1.1 Build 123)  -->
  <defs>
    <style>
      .st0 {
        fill: none;
        stroke: #231f20;
        stroke-miterlimit: 10;
      }
    </style>
  </defs>
  <path class="st0" d="M310.99,473.31c-5.46-11.67-32.86,4.06-42.45,17.02-15.49,21.1-34.83,12.98-42.32,7.07-9.43-13.17,10.24-33.52,25.02-36.16,14.63-2.47,38.41-1.83,32.8-19.42-5.84-17.33-81.68-14.36-70.39-39.16,6.44-14.15,31.47-8.19,50.01.53,13.97,6.57,23.3,22.98,33.97,12.19,1.59-1.6-1.5-16.61-7.12-20.26-19.72-12.73-20.88-31.62-9.72-37.32,13.51-6.9,28.81,6.22,31.88,20.37,1.93,9.09,5.34,15.13,9.71,15.5,10.26.86,15.28-28.64,23.31-49.41,7.1-18.36,21.19-33.14,31.12-25.84,9,6.62,8.72,26.06,2.13,43.35-8.89,23.31-16.22,44.51-8.81,51.34,12.91,11.9,43.03-14.35,44.17,6.3.37,6.72-.68,17.8-7.29,20.62-13.69,5.84-41.17,1.19-41.72,10.09-.47,7.56,14.9,17.72,24.82,25.67,7.4,5.93,12.61,13.82,6.23,19.22-6.66,5.63-17.86,7.35-25.48,2.62-9.48-5.89-19.25-17.59-25.75-12.89-5.88,4.26-4.97,12.87-6.53,23.07-1.54,10.11-7.69,23.28-16.33,21.52-9.82-2.01-15.86-17.31-15.68-27.9.14-8.11,6.29-22.83,4.39-28.12Z"/>
</svg>