<?xml version="1.0" encoding="UTF-8"?>
<svg id="Layer_1" xmlns="http://www.w3.org/2000/svg" version="1.1" viewBox="0 0 595.28 841.89">
  <!-- Generator: Adobe Illustrator 30.0.0, SVG Export Plug-In . SVG Version: 2.1.1 Build 123)  -->
  <defs>
    <style>
      .st0 {
        fill: none;
        stroke: #231f20;
        stroke-miterlimit: 10;
      }
    </style>
  </defs>
  <path class="st0" d="M311.58,473.53c-5.11-12.49-33.96,3.73-43.52,17.06-15.54,21.75-35.11,12.96-41.9,6.31-10.27-13.31,9.86-34.12,24.89-36.4,14.96-2.2,39.74-.47,33.75-18.72-6.1-18.12-82.72-13.08-70.92-39.01,6.73-14.79,30.4-8.98,49.79.14,14.6,6.87,22.79,24.46,33.96,13.19,1.66-1.68-.16-17.31-6.12-21.01-21.22-13.11-22.06-31.17-10.39-37.13,14.13-7.21,28.94,5.76,31.58,20.52,1.69,9.59,5.09,15.96,9.66,16.34,10.73.9,14.77-28.99,23.17-50.7,7.43-19.2,21.14-33.22,31.52-25.6,9.41,6.92,9.43,25.45,2.54,43.52-9.3,24.37-16.44,43.59-8.69,50.73,13.5,12.44,42.45-14.85,43.65,6.73.39,7.03-.64,17.89-7.55,20.84-14.31,6.1-41.95,1.02-42.52,10.33-.49,7.91,15.53,17.17,25.9,25.47,7.73,6.2,12.89,13.32,6.22,18.96-6.97,5.88-18.12,6.99-26.09,2.04-9.91-6.15-18.53-18.44-25.32-13.53-6.15,4.45-4.84,13.6-6.47,24.26-1.61,10.57-7.23,23.4-16.26,21.56-10.27-2.1-16.44-16.56-16.25-27.63.15-8.48,7.34-22.77,5.36-28.3Z"/>
</svg>