<?xml version="1.0" encoding="UTF-8"?>
<svg id="Layer_1" xmlns="http://www.w3.org/2000/svg" version="1.1" viewBox="0 0 595.28 841.89">
  <!-- Generator: Adobe Illustrator 30.0.0, SVG Export Plug-In . SVG Version: 2.1.1 Build 123)  -->
  <defs>
    <style>
      .st0 {
        fill: none;
        stroke: #231f20;
        stroke-miterlimit: 10;
      }
    </style>
  </defs>
  <path class="st0" d="M297.41,472.41c-6.85-8.38-28.46,5.38-38.16,16.86-15.3,18.5-33.74,13.07-43.99,10.1-6.05-12.61,11.74-31.13,25.53-35.18,13.34-3.55,33.08-7.26,28.99-22.23-4.78-14.18-77.54-19.47-68.3-39.77,5.27-11.58,35.74-5.03,50.91,2.1,11.43,5.38,25.31,17.04,34.04,8.21,1.3-1.31-6.86-13.79-11.11-17.27-13.73-11.22-16.17-33.41-7.04-38.07,11.06-5.64,28.3,8.05,33.07,19.75,2.89,7.08,6.34,11.81,9.91,12.11,8.4.71,17.3-27.24,23.88-44.23,5.81-15.02,21.38-32.81,29.5-26.84,7.37,5.42,5.88,28.51.49,42.65-7.28,19.07-15.32,48.19-9.26,53.78,10.56,9.74,45.33-12.34,46.26,4.56.3,5.5-.84,17.42-6.25,19.73-11.2,4.78-38.04,1.87-38.49,9.16-.38,6.19,12.4,19.96,20.51,26.46,6.05,4.85,11.49,15.84,6.27,20.26-5.45,4.61-16.82,8.8-23.06,4.93-7.76-4.82-22.16-14.17-27.48-10.32-4.81,3.48-5.49,9.94-6.77,18.28-1.26,8.27-9.54,22.78-16.61,21.34-8.04-1.64-13.54-20.32-13.39-28.98.12-6.63,2.09-23.05.54-27.38Z"/>
</svg>