<?xml version="1.0" encoding="UTF-8"?>
<svg id="Layer_1" xmlns="http://www.w3.org/2000/svg" version="1.1" viewBox="0 0 595.28 841.89">
  <!-- Generator: Adobe Illustrator 30.0.0, SVG Export Plug-In . SVG Version: 2.1.1 Build 123)  -->
  <defs>
    <style>
      .st0 {
        fill: none;
        stroke: #231f20;
        stroke-miterlimit: 10;
      }
    </style>
  </defs>
  <path class="st0" d="M297.69,472.12c-7.3-7.33-28.09,5.81-37.83,16.81-15.23,17.67-33.39,13.1-44.53,11.08-4.96-12.42,12.22-30.36,25.69-34.87,12.93-3.9,32.72-9.01,29.1-23.13-4.43-13.17-77.55-21.12-68.98-39.96,4.89-10.75,37.11-4.02,51.2,2.61,10.61,4.99,25.54,16.16,33.65,7.97,1.21-1.22-6.54-13.37-10.49-16.6-12.75-10.42-16.15-34.73-7.67-39.06,10.27-5.24,28.28,9.28,32.71,20.15,2.68,6.57,6.95,11.93,10.28,12.21,7.8.66,18.4-28.58,24.51-44.36,5.4-13.95,21.45-32.71,28.99-27.16,6.84,5.03,4.97,29.3-.04,42.43-6.76,17.71-15.03,49.37-9.4,54.56,9.81,9.04,46.06-11.69,46.93,4,.28,5.11-1.64,16.7-6.66,18.85-10.4,4.43-38.08,3.43-38.5,10.2-.35,5.75,13.09,20.68,20.62,26.72,5.62,4.5,11.43,15.74,6.58,19.84-5.06,4.28-17.23,7.77-23.02,4.18-7.2-4.47-22.65-13.67-27.58-10.1-4.47,3.23-5.96,11.08-7.15,18.83-1.17,7.68-9.54,22.62-16.1,21.28-7.46-1.52-12.79-21.29-12.65-29.33.11-6.16,1.78-23.13.34-27.15Z"/>
</svg>